<svg width="23" height="18" viewBox="0 0 23 18" fill="none" xmlns="http://www.w3.org/2000/svg">
<path d="M12.9874 0.329096C13.4364 -0.109607 14.164 -0.10979 14.6129 0.329096L22.6631 8.20472C22.8786 8.41567 23 8.70245 23 9.00069C22.9999 9.2986 22.8783 9.58421 22.6631 9.79501L14.6129 17.6706C14.1639 18.1099 13.4365 18.1097 12.9874 17.6706C12.5383 17.2313 12.5383 16.5197 12.9874 16.0803L19.0735 10.1246H1.15051C0.515596 10.1246 0.000303665 9.62176 0 9.00069C5.04729e-08 8.37936 0.515409 7.87513 1.15051 7.87513H19.0735L12.9874 1.92103C12.5383 1.48169 12.5383 0.76844 12.9874 0.329096Z" fill="white"/>
</svg>
