<svg width="147" height="120" viewBox="0 0 147 120" fill="none" xmlns="http://www.w3.org/2000/svg">
<path d="M122.984 113.228C139.203 80.0238 125.433 39.9581 92.2285 23.7392C59.0238 7.52032 18.9581 21.29 2.73923 54.4947C-13.4797 87.6994 0.290053 127.765 33.4947 143.984C66.6994 160.203 106.765 146.433 122.984 113.228ZM51.9224 106.443C56.073 108.471 57.7942 113.479 55.7669 117.629C53.7395 121.78 48.7313 123.501 44.5807 121.474L44.5073 121.438C40.3567 119.411 38.6355 114.403 40.6629 110.252C42.6902 106.101 47.6984 104.38 51.849 106.407L51.9224 106.443ZM55.3463 80.1907L70.0298 50.1295C72.0571 45.9789 77.0653 44.2577 81.2159 46.2851C85.3665 48.3125 87.0877 53.3207 85.0604 57.4713L70.3769 87.5324C68.3496 91.683 63.3413 93.4042 59.1908 91.3769C55.0402 89.3495 53.319 84.3413 55.3463 80.1907ZM138.015 120.57C117.741 162.076 67.6589 179.288 26.153 159.015C-15.3528 138.741 -32.565 88.6588 -12.2914 47.153C7.98224 5.64713 58.0644 -11.565 99.5702 8.70861C141.076 28.9822 158.288 79.0643 138.015 120.57Z" fill="#F3F2F2" fill-opacity="0.12"/>
</svg>
