<svg width="148" height="121" viewBox="0 0 148 121" fill="none" xmlns="http://www.w3.org/2000/svg">
<path d="M100.802 9.10259C142.229 29.3525 159.396 79.351 139.146 120.777C118.896 162.204 68.8972 179.371 27.4709 159.121C-13.9555 138.871 -31.1224 88.8723 -10.8725 47.4459C9.37742 6.01959 59.3759 -11.1473 100.802 9.10259ZM45.622 84.3546C38.8726 99.616 34.6691 113.92 33.1642 125.176C32.2825 131.771 32.3947 136.842 33.1358 140.272C33.4997 141.955 33.9621 142.986 34.3249 143.558C34.4961 143.827 34.6261 143.973 34.6975 144.04C34.7636 144.101 34.7985 144.116 34.804 144.119C34.8095 144.122 34.8427 144.14 34.9319 144.154C35.0286 144.169 35.2232 144.183 35.5409 144.152C36.2148 144.088 37.3123 143.819 38.8641 143.072C42.0264 141.55 46.0964 138.524 50.7591 133.776C58.7162 125.675 67.4215 113.571 75.318 98.8705L45.622 84.3546ZM0.946208 62.5163C-7.27502 86.4741 -1.06479 112.661 15.9377 130.377C16.054 127.971 16.2737 125.491 16.6113 122.965C18.3895 109.665 23.2073 93.5985 30.5982 77.0107L0.946208 62.5163ZM90.3418 106.214C81.7926 122.236 72.074 135.907 62.6716 145.48C60.8851 147.299 59.0571 148.991 57.2293 150.561C81.6559 153.098 106.138 141.915 119.994 120.709L90.3418 106.214ZM112.332 37.8352C112.216 40.2444 112 42.7286 111.662 45.2581C109.884 58.558 105.066 74.6248 97.6749 91.2126L127.327 105.707C135.549 81.7458 129.34 55.5516 112.332 37.8352ZM93.3412 24.0691C93.2446 24.0538 93.0499 24.0405 92.7322 24.0709C92.0584 24.1357 90.9608 24.4042 89.4091 25.151C86.2467 26.6735 82.1767 29.6997 77.514 34.4469C69.5569 42.5483 60.8517 54.6522 52.9552 69.3528L82.6511 83.8687C89.4005 68.6074 93.6041 54.303 95.1089 43.0476C95.9907 36.4522 95.8785 31.3817 95.1373 27.951C94.7734 26.2678 94.311 25.2369 93.9482 24.6653C93.777 24.396 93.647 24.2505 93.5756 24.1837C93.5095 24.1221 93.4746 24.1071 93.4691 24.1044C93.4637 24.1017 93.4304 24.0834 93.3412 24.0691ZM71.0401 17.6512C46.6151 15.1164 22.1345 26.3096 8.27935 47.5145L37.9314 62.0089C46.4805 45.9873 56.1991 32.3161 65.6016 22.7431C67.3891 20.9232 69.2112 19.2222 71.0401 17.6512Z" fill="#F3F2F2" fill-opacity="0.12"/>
</svg>
